HIERARCHY
ROOT SpineBase
{
  OFFSET 0.000000 0.000000 0.000000
  CHANNELS 6 Xposition Yposition Zposition Zrotation Xrotation Yrotation
  JOINT SpineMid
  {
    OFFSET -0.000000 28.193149 0.000000
    CHANNELS 3 Zrotation Xrotation Yrotation
    JOINT SpineShoulder
    {
      OFFSET 0.352024 21.055916 -0.308186
      CHANNELS 3 Zrotation Xrotation Yrotation
      JOINT Neck
      {
        OFFSET 0.153007 7.004688 -0.437836
        CHANNELS 3 Zrotation Xrotation Yrotation
        JOINT Head
        {
          OFFSET -1.534727 12.257066 1.749783
          CHANNELS 3 Zrotation Xrotation Yrotation
          End Site
          {
            OFFSET 0 0 0
          }
        }
      }
      JOINT ShoulderLeft
      {
        OFFSET -14.829933 -3.288912 5.069881
        CHANNELS 3 Zrotation Xrotation Yrotation
        JOINT ElbowLeft
        {
          OFFSET -3.435454 -25.005156 -4.953276
          CHANNELS 3 Zrotation Xrotation Yrotation
          JOINT WristLeft
          {
            OFFSET -4.716798 -13.324757 -7.527063
            CHANNELS 3 Zrotation Xrotation Yrotation
            JOINT HandLeft
            {
              OFFSET -1.744237 -3.900640 -1.312056
              CHANNELS 3 Zrotation Xrotation Yrotation
              JOINT HandTipLeft
              {
                OFFSET 1.457160 -1.774817 -1.622367
                CHANNELS 3 Zrotation Xrotation Yrotation
                End Site
                {
                  OFFSET 0 0 0
                }
              }
              JOINT ThumbLeft
              {
                OFFSET -0.601093 1.332549 -0.602246
                CHANNELS 3 Zrotation Xrotation Yrotation
                End Site
                {
                  OFFSET 0 0 0
                }
              }
            }
          }
        }
      }
      JOINT ShoulderRight
      {
        OFFSET 12.423900 -3.380033 -8.106219
        CHANNELS 3 Zrotation Xrotation Yrotation
        JOINT ElbowRight
        {
          OFFSET 11.117552 -18.717249 -4.858218
          CHANNELS 3 Zrotation Xrotation Yrotation
          JOINT WristRight
          {
            OFFSET -13.342699 -7.530744 -11.452880
            CHANNELS 3 Zrotation Xrotation Yrotation
            JOINT HandRight
            {
              OFFSET -3.915503 1.001393 4.849314
              CHANNELS 3 Zrotation Xrotation Yrotation
              JOINT HandTipRight
              {
                OFFSET -6.177305 -0.670414 2.397586
                CHANNELS 3 Zrotation Xrotation Yrotation
                End Site
                {
                  OFFSET 0 0 0
                }
              }
              JOINT ThumbRight
              {
                OFFSET -3.241649 4.302400 -0.527689
                CHANNELS 3 Zrotation Xrotation Yrotation
                End Site
                {
                  OFFSET 0 0 0
                }
              }
            }
          }
        }
      }
    }
  }
  JOINT HipLeft
  {
    OFFSET -5.885518 0.436382 0.407552
    CHANNELS 3 Zrotation Xrotation Yrotation
    JOINT KneeLeft
    {
      OFFSET 2.587837 -27.202643 2.170801
      CHANNELS 3 Zrotation Xrotation Yrotation
      JOINT AnkleLeft
      {
        OFFSET 3.892891 -34.838998 6.310257
        CHANNELS 3 Zrotation Xrotation Yrotation
        JOINT FootLeft
        {
          OFFSET -4.341163 -2.880984 -11.629134
          CHANNELS 3 Zrotation Xrotation Yrotation
          End Site
          {
            OFFSET 0 0 0
          }
        }
      }
    }
  }
  JOINT HipRight
  {
    OFFSET 5.380435 1.310548 -6.946847
    CHANNELS 3 Zrotation Xrotation Yrotation
    JOINT KneeRight
    {
      OFFSET 2.578111 -30.032800 4.171371
      CHANNELS 3 Zrotation Xrotation Yrotation
      JOINT AnkleRight
      {
        OFFSET 1.972759 -31.468922 5.418095
        CHANNELS 3 Zrotation Xrotation Yrotation
        JOINT FootRight
        {
          OFFSET -5.156570 -4.091237 -5.757256
          CHANNELS 3 Zrotation Xrotation Yrotation
          End Site
          {
            OFFSET 0 0 0
          }
        }
      }
    }
  }
}
MOTION
Frames: 14
Frame Time: 0.033333
27.048427 85.009441 343.792016 -9.513580 28.264004 21.194117 3.699819 -0.056275 -18.392982 1.455433 -0.390394 0.062313 11.640830 -22.759531 4.955241 0.000000 0.000000 0.000000 2.159170 -18.830217 0.072742 58.806665 1.721112 -37.309463 -82.284091 24.227264 -6.046649 35.721839 -62.252520 55.861225 0.000000 0.000000 0.000000 0.000000 0.000000 0.000000 -30.429495 -9.694587 12.270097 22.177061 -21.301356 -15.770041 64.169480 -1.031748 -74.038360 -8.792957 -35.719661 2.198862 0.000000 0.000000 0.000000 0.000000 0.000000 0.000000 -19.199454 -25.968436 -29.231971 40.873323 -13.043305 5.629497 -21.686602 11.537243 1.085344 0.000000 0.000000 0.000000 -23.554402 35.403081 -19.439772 32.926963 -18.185557 14.060504 9.679415 6.394230 -29.474311 0.000000 0.000000 0.000000
25.884705 84.626748 345.044415 -10.998207 27.005103 24.747855 3.486870 -0.480749 -21.759512 2.039725 0.127668 0.165669 12.953650 -22.040964 5.146334 0.000000 0.000000 0.000000 4.238518 -20.916730 0.979765 57.827274 3.005066 -39.914018 -90.269342 19.821464 -4.407648 48.028848 -67.625048 52.485824 0.000000 0.000000 0.000000 0.000000 0.000000 0.000000 -33.616775 -13.938827 7.524138 27.924128 -13.565974 -15.337239 59.816642 -0.980874 -70.190878 -8.976701 -31.726491 -1.224537 0.000000 0.000000 0.000000 0.000000 0.000000 0.000000 -15.004535 -11.515914 -27.893427 46.553274 -30.798455 13.349802 -20.345956 17.959834 0.350962 0.000000 0.000000 0.000000 -26.810620 41.521214 -21.743904 47.779719 -27.667010 20.537418 14.193605 12.477073 -35.389808 0.000000 0.000000 0.000000
24.112081 83.784383 347.230572 -12.808676 24.724547 30.826133 2.880961 -0.993757 -27.831981 2.641310 0.972294 0.227601 14.212118 -20.953930 5.117560 0.000000 0.000000 0.000000 7.336946 -20.895784 1.926102 56.277529 3.957622 -41.184991 -93.915795 16.612363 -3.561762 36.682562 -59.766535 46.813239 0.000000 0.000000 0.000000 0.000000 0.000000 0.000000 -34.127304 -18.418010 2.141727 28.716227 -3.229688 -11.945504 60.404307 -4.866146 -70.771847 -8.889008 -28.911430 1.463663 0.000000 0.000000 0.000000 0.000000 0.000000 0.000000 -4.454170 5.497079 -27.754041 52.951509 -51.009665 25.770420 -17.671653 23.553585 -0.114107 0.000000 0.000000 0.000000 -25.319848 47.897294 -26.763611 66.087499 -34.597651 30.224361 12.581573 15.654577 -37.307678 0.000000 0.000000 0.000000
23.246026 82.633905 349.164057 -13.274565 22.718044 33.950754 2.152984 -1.078888 -31.287112 2.570664 1.354227 0.135610 14.934236 -19.919509 4.884642 0.000000 0.000000 0.000000 10.523118 -21.176028 2.828353 55.645356 4.984270 -43.860065 -97.657944 4.157523 -3.270535 28.065007 -45.223848 38.103616 0.000000 0.000000 0.000000 0.000000 0.000000 0.000000 -31.782159 -23.244796 -3.618684 25.765404 6.987600 -6.585990 58.923389 -8.250229 -71.302870 -8.867912 -24.521571 4.780737 0.000000 0.000000 0.000000 0.000000 0.000000 0.000000 3.791725 18.890549 -28.571974 73.829560 -65.841387 49.133365 -17.086248 30.057377 1.928028 0.000000 0.000000 0.000000 -29.780286 51.699703 -28.826437 86.989330 -33.704365 39.979400 4.855184 15.325895 -30.688711 0.000000 0.000000 0.000000
22.910172 81.402028 351.190626 -12.997031 20.674515 35.093249 1.430280 -0.934199 -32.900067 2.148306 1.601840 -0.012699 15.097030 -18.902946 4.474324 0.000000 0.000000 0.000000 11.699942 -19.828403 2.956873 54.785039 5.269957 -43.761790 -95.858276 -0.954278 -2.152450 20.972382 -35.767412 38.185708 0.000000 0.000000 0.000000 0.000000 0.000000 0.000000 -30.929921 -24.951796 -6.211561 25.024824 10.995584 -2.789432 56.504931 -10.603318 -73.636798 -8.115687 -19.321361 9.583149 0.000000 0.000000 0.000000 0.000000 0.000000 0.000000 10.214306 27.276848 -29.562374 101.962527 -72.665569 79.295406 -15.464009 35.149672 1.384511 0.000000 0.000000 0.000000 -32.817466 50.797117 -29.898533 99.454129 -31.624023 43.823571 -6.000956 22.038035 -23.495506 0.000000 0.000000 0.000000
22.832379 80.014943 353.101333 -12.444404 18.674623 33.659497 0.973504 -0.732723 -31.886261 1.546685 1.727686 -0.166967 14.921212 -17.955883 3.996169 0.000000 0.000000 0.000000 12.551220 -16.938574 2.696556 52.930338 5.252153 -41.766675 -94.065316 -3.528032 -0.996405 19.499349 -28.584488 38.936149 0.000000 0.000000 0.000000 0.000000 0.000000 0.000000 -27.909364 -26.098643 -7.712554 20.432228 13.911141 3.486105 57.833825 -12.203285 -74.674609 -7.716871 -17.830923 12.214136 0.000000 0.000000 0.000000 0.000000 0.000000 0.000000 12.179482 31.303100 -28.572346 117.963626 -71.073857 95.478954 -18.769000 38.872792 3.485207 0.000000 0.000000 0.000000 -37.884188 48.629500 -27.691743 106.498535 -29.929071 44.155823 -13.334946 29.577545 -20.665468 0.000000 0.000000 0.000000
22.747413 78.831893 355.180431 -12.016183 16.383032 30.785392 0.819032 -0.357333 -29.348596 1.196623 1.940525 -0.239457 14.261241 -17.074226 3.462327 0.000000 0.000000 0.000000 13.325289 -11.527315 1.907797 49.741561 4.123470 -36.936328 -92.140823 -2.766416 0.141097 15.362088 -24.581990 43.209292 0.000000 0.000000 0.000000 0.000000 0.000000 0.000000 -25.647625 -25.261899 -7.146504 19.063317 12.110521 7.649664 56.075196 -12.153727 -76.285619 -5.237521 -11.621943 15.436386 0.000000 0.000000 0.000000 0.000000 0.000000 0.000000 9.299298 32.746572 -25.879815 108.577920 -71.521170 84.813762 -18.112455 38.746964 2.940673 0.000000 0.000000 0.000000 -43.972325 45.932448 -23.668914 109.751247 -27.276064 41.968498 -19.177638 35.255748 -19.204388 0.000000 0.000000 0.000000
23.068052 77.687608 357.125153 -11.242071 14.164866 26.507217 0.761967 -0.042456 -25.386549 0.643119 2.237244 -0.311953 13.545987 -15.952810 2.998514 0.000000 0.000000 0.000000 13.029361 -4.966133 0.794044 46.513540 1.816731 -30.548691 -89.839011 -0.538499 1.591709 12.835927 -24.276766 45.517245 0.000000 0.000000 0.000000 0.000000 0.000000 0.000000 -26.374612 -21.699284 -4.004965 23.179915 4.607454 8.953588 56.479240 -8.499909 -76.590055 -1.816152 -9.228373 16.904204 0.000000 0.000000 0.000000 0.000000 0.000000 0.000000 1.891668 29.397999 -21.697774 76.072538 -67.106913 49.930097 -16.864290 34.660839 1.490601 0.000000 0.000000 0.000000 -44.967226 40.528404 -20.348146 106.204086 -27.068824 39.137105 -18.593322 39.392067 -25.144761 0.000000 0.000000 0.000000
23.645756 76.773018 358.911049 -10.287690 12.191074 23.224348 0.636346 0.068263 -22.387832 0.216033 2.668849 -0.330521 12.517618 -14.727008 2.566711 0.000000 0.000000 0.000000 12.339646 0.583420 -0.170160 44.646574 0.685173 -26.723945 -92.899568 10.249765 0.978347 16.301106 -29.066231 54.616022 0.000000 0.000000 0.000000 0.000000 0.000000 0.000000 -26.333880 -20.438395 -3.356273 23.422861 2.703127 11.618096 57.325352 -8.381391 -77.991875 -1.630467 -7.240943 23.191030 0.000000 0.000000 0.000000 0.000000 0.000000 0.000000 -1.340564 28.647053 -18.540802 52.324529 -65.611481 27.631315 -9.740852 31.543896 -0.557681 0.000000 0.000000 0.000000 -50.471540 37.184020 -17.195347 103.722873 -19.641150 33.537309 -20.319306 33.691301 -24.617184 0.000000 0.000000 0.000000
24.417439 76.232788 360.639114 -9.207492 10.425053 20.537639 0.471364 0.055973 -19.947321 -0.210838 2.972136 -0.341442 11.362485 -13.477855 2.146925 0.000000 0.000000 0.000000 10.829805 6.224200 -1.027517 41.222087 -2.360151 -20.555925 -90.607213 20.015805 3.438330 14.456295 -45.621312 52.623883 0.000000 0.000000 0.000000 0.000000 0.000000 0.000000 -26.273047 -19.158351 -2.738736 24.691943 0.655415 13.216500 56.991349 -6.940208 -78.804430 -0.262152 -5.172153 24.968013 0.000000 0.000000 0.000000 0.000000 0.000000 0.000000 -3.907968 27.499643 -16.086649 25.173130 -58.883372 4.154763 0.648036 25.409046 -1.253795 0.000000 0.000000 0.000000 -50.599721 32.921154 -16.011189 99.301278 -17.969302 29.936637 -22.256868 35.091650 -23.850406 0.000000 0.000000 0.000000
25.308218 75.917013 362.202356 -8.015298 8.872427 14.193141 0.291282 0.041334 -13.805471 -0.621492 3.178154 -0.343977 9.902871 -12.299600 1.755731 0.000000 0.000000 0.000000 8.599510 10.294093 -1.429594 36.934035 -7.414664 -13.528221 -82.530023 28.714327 7.368364 6.266299 -62.642141 39.248842 0.000000 0.000000 0.000000 0.000000 0.000000 0.000000 -26.331886 -17.982671 -2.236171 24.724663 0.377034 13.737100 57.434004 -4.277399 -75.218512 4.405894 -0.764676 22.542810 0.000000 0.000000 0.000000 0.000000 0.000000 0.000000 -8.029724 25.361958 -9.689941 5.893985 -46.853229 -9.694019 11.387580 19.386351 -0.471286 0.000000 0.000000 0.000000 -47.884700 26.540352 -11.771566 90.818445 -18.841544 27.645254 -21.500850 32.488904 -21.927309 0.000000 0.000000 0.000000
26.237961 75.563723 363.626363 -6.845544 7.497153 10.762381 0.178377 -0.063275 -10.525344 -0.896593 3.242128 -0.330595 7.712384 -10.611751 1.426347 0.000000 0.000000 0.000000 6.452612 11.996662 -1.450086 33.114015 -13.136969 -7.737787 -74.498219 32.094890 11.188002 -5.715007 -71.290673 14.480797 0.000000 0.000000 0.000000 0.000000 0.000000 0.000000 -26.598941 -17.781636 -2.891897 27.133530 -0.029814 14.121696 55.862722 -1.309512 -75.334469 7.632847 9.367175 29.430709 0.000000 0.000000 0.000000 0.000000 0.000000 0.000000 -10.380881 23.436834 -6.571309 -4.572550 -34.008326 -14.321309 21.482402 11.379990 -1.120309 0.000000 0.000000 0.000000 -39.801910 23.278821 -8.978806 77.084758 -24.862043 25.398344 -14.350221 29.444111 -23.281918 0.000000 0.000000 0.000000
27.152589 75.133663 364.715487 -5.746005 6.517424 8.608800 0.122969 -0.266796 -8.471015 -1.061623 3.106774 -0.313300 6.345667 -10.285003 1.042061 0.000000 0.000000 0.000000 4.168437 11.009726 -1.087945 30.113083 -18.464176 -3.362850 -63.275447 30.979681 13.358345 -7.602383 -58.232912 14.453726 0.000000 0.000000 0.000000 0.000000 0.000000 0.000000 -27.252858 -16.372924 -2.128905 25.084043 0.006935 16.254042 61.711973 -2.756602 -74.909424 3.753293 7.089361 38.745153 0.000000 0.000000 0.000000 0.000000 0.000000 0.000000 -11.292195 21.724206 -4.832510 -11.166883 -24.182868 -15.371247 30.211315 2.890178 -3.436138 0.000000 0.000000 0.000000 -28.319094 19.418214 -7.673910 56.924925 -31.329718 19.099629 -4.263298 27.195764 -26.690046 0.000000 0.000000 0.000000
27.892289 74.653521 365.547060 -4.890510 5.813449 8.221764 0.143907 -0.465274 -8.139402 -1.100167 2.801173 -0.293191 4.560606 -9.434767 0.783963 0.000000 0.000000 0.000000 2.801321 5.661609 -0.412532 27.000223 -21.254752 -1.364383 -36.361411 14.049624 12.221174 -22.739371 -29.639585 9.672880 0.000000 0.000000 0.000000 0.000000 0.000000 0.000000 -28.134029 -14.055226 -0.243565 20.411990 0.369180 18.187916 66.752970 -5.640315 -71.586438 -0.382987 0.145351 43.382788 0.000000 0.000000 0.000000 0.000000 0.000000 0.000000 -10.449301 20.251564 -4.951111 -13.479775 -20.448987 -14.787211 36.426221 -8.923871 -9.809991 0.000000 0.000000 0.000000 -16.558391 16.603856 -7.459302 35.848630 -35.501905 11.116132 5.953131 25.000439 -31.885765 0.000000 0.000000 0.000000
